<?xml version="1.0" encoding="UTF-8" standalone="no"?>
<svg
   xmlns:dc="http://purl.org/dc/elements/1.1/"
   xmlns:cc="http://creativecommons.org/ns#"
   xmlns:rdf="http://www.w3.org/1999/02/22-rdf-syntax-ns#"
   xmlns:svg="http://www.w3.org/2000/svg"
   xmlns="http://www.w3.org/2000/svg"
   xmlns:sodipodi="http://sodipodi.sourceforge.net/DTD/sodipodi-0.dtd"
   xmlns:inkscape="http://www.inkscape.org/namespaces/inkscape"
   viewBox="0 0 512 512"
   version="1.1"
   id="svg4"
   sodipodi:docname="group.svg"
   inkscape:version="0.92.5 (2060ec1f9f, 2020-04-08)">
  <metadata
     id="metadata10">
    <rdf:RDF>
      <cc:Work
         rdf:about="">
        <dc:format>image/svg+xml</dc:format>
        <dc:type
           rdf:resource="http://purl.org/dc/dcmitype/StillImage" />
        <dc:title></dc:title>
      </cc:Work>
    </rdf:RDF>
  </metadata>
  <defs
     id="defs8" />
  <sodipodi:namedview
     pagecolor="#ffffff"
     bordercolor="#666666"
     borderopacity="1"
     objecttolerance="10"
     gridtolerance="10"
     guidetolerance="10"
     inkscape:pageopacity="0"
     inkscape:pageshadow="2"
     inkscape:window-width="1920"
     inkscape:window-height="1051"
     id="namedview6"
     showgrid="false"
     inkscape:zoom="0.32593203"
     inkscape:cx="-486.91467"
     inkscape:cy="15.054185"
     inkscape:window-x="0"
     inkscape:window-y="-37"
     inkscape:window-maximized="1"
     inkscape:current-layer="svg4" />
  <path
     inkscape:connector-curvature="0"
     style="fill:#000000;fill-opacity:1;stroke:#ffffff;stroke-width:70.66600037;stroke-miterlimit:4;stroke-dasharray:none;stroke-opacity:1;paint-order:stroke fill markers"
     d="m 107.33559,237.06265 c 23.51339,0 42.63051,-19.11711 42.63051,-42.6305 0,-23.51339 -19.11712,-42.63051 -42.63051,-42.63051 -23.513386,0 -42.630505,19.11712 -42.630505,42.63051 0,23.51339 19.117119,42.6305 42.630505,42.6305 z m 298.41356,0 c 23.51339,0 42.63051,-19.11711 42.63051,-42.6305 0,-23.51339 -19.11712,-42.63051 -42.63051,-42.63051 -23.51339,0 -42.63051,19.11712 -42.63051,42.63051 0,23.51339 19.11712,42.6305 42.63051,42.6305 z m 21.31526,21.31526 H 384.4339 c -11.72339,0 -22.31441,4.72932 -30.04119,12.38949 26.8439,14.72085 45.89441,41.29831 50.02424,72.87153 h 43.96271 c 11.79,0 21.31525,-9.52526 21.31525,-21.31526 v -21.31525 c 0,-23.51339 -19.11711,-42.63051 -42.6305,-42.63051 z m -170.52204,0 c 41.2317,0 74.60339,-33.3717 74.60339,-74.60339 0,-41.2317 -33.37169,-74.60339 -74.60339,-74.60339 -41.23169,0 -74.60339,33.37169 -74.60339,74.60339 0,41.23169 33.3717,74.60339 74.60339,74.60339 z m 51.15661,21.31525 h -5.52864 c -13.85492,6.66102 -29.24187,10.65763 -45.62797,10.65763 -16.3861,0 -31.70644,-3.99661 -45.62796,-10.65763 h -5.52865 c -42.36406,0 -76.73491,34.37085 -76.73491,76.73492 v 19.18373 c 0,17.65169 14.32118,31.97288 31.97288,31.97288 h 191.83729 c 17.65169,0 31.97288,-14.32119 31.97288,-31.97288 v -19.18373 c 0,-42.36407 -34.37085,-76.73492 -76.73492,-76.73492 z M 158.69203,270.7674 c -7.72678,-7.66017 -18.31779,-12.38949 -30.04118,-12.38949 H 86.02034 c -23.51339,0 -42.630509,19.11712 -42.630509,42.63051 v 21.31525 c 0,11.79 9.525254,21.31526 21.315254,21.31526 h 43.896105 c 4.19644,-31.57322 23.24695,-58.15068 50.09084,-72.87153 z"
     class=""
     id="path2" />
</svg>
