<?xml version="1.0" encoding="UTF-8" standalone="no"?>
<svg
   xmlns:dc="http://purl.org/dc/elements/1.1/"
   xmlns:cc="http://creativecommons.org/ns#"
   xmlns:rdf="http://www.w3.org/1999/02/22-rdf-syntax-ns#"
   xmlns:svg="http://www.w3.org/2000/svg"
   xmlns="http://www.w3.org/2000/svg"
   xmlns:sodipodi="http://sodipodi.sourceforge.net/DTD/sodipodi-0.dtd"
   xmlns:inkscape="http://www.inkscape.org/namespaces/inkscape"
   viewBox="0 0 512 512"
   version="1.1"
   id="svg4"
   sodipodi:docname="solved.svg"
   inkscape:version="0.92.5 (2060ec1f9f, 2020-04-08)">
  <metadata
     id="metadata10">
    <rdf:RDF>
      <cc:Work
         rdf:about="">
        <dc:format>image/svg+xml</dc:format>
        <dc:type
           rdf:resource="http://purl.org/dc/dcmitype/StillImage" />
      </cc:Work>
    </rdf:RDF>
  </metadata>
  <defs
     id="defs8" />
  <sodipodi:namedview
     pagecolor="#ffffff"
     bordercolor="#666666"
     borderopacity="1"
     objecttolerance="10"
     gridtolerance="10"
     guidetolerance="10"
     inkscape:pageopacity="0"
     inkscape:pageshadow="2"
     inkscape:window-width="1920"
     inkscape:window-height="1051"
     id="namedview6"
     showgrid="false"
     inkscape:zoom="0.921875"
     inkscape:cx="179.47932"
     inkscape:cy="281.64524"
     inkscape:window-x="0"
     inkscape:window-y="-37"
     inkscape:window-maximized="1"
     inkscape:current-layer="svg4" />
  <path
     d="M 412.93946,455.05085 H 100.14528 c -23.557313,0 -42.653754,-19.09644 -42.653754,-42.65375 V 99.602905 c 0,-23.557309 19.096441,-42.653752 42.653754,-42.653752 h 312.79418 c 23.55731,0 42.65375,19.096443 42.65375,42.653752 V 412.3971 c 0,23.55731 -19.09644,42.65375 -42.65375,42.65375 z M 231.05142,367.91368 394.55747,204.40762 c 5.5521,-5.55209 5.5521,-14.5547 0,-20.1068 l -20.1068,-20.1068 c -5.5521,-5.5521 -14.5547,-5.55299 -20.10769,0 L 220.99757,297.53854 158.74175,235.28272 c -5.55209,-5.5521 -14.5547,-5.5521 -20.10769,0 l -20.10679,20.1068 c -5.5521,5.5521 -5.5521,14.55471 0,20.1068 l 92.41646,92.41647 c 5.55298,5.55387 14.5547,5.55387 20.10769,8.9e-4 z"
     id="path5"
     inkscape:connector-curvature="0"
     style="fill:#000000;fill-opacity:1;stroke:#fffffd;stroke-width:100.88899994;stroke-linejoin:round;stroke-miterlimit:4;stroke-dasharray:none;stroke-opacity:1;paint-order:stroke fill markers" />
</svg>
